<svg width="40" height="40" viewBox="0 0 40 40" fill="none" xmlns="http://www.w3.org/2000/svg">
<path d="M34.0817 34.0824H28.155V24.8007C28.155 22.5874 28.1155 19.7382 25.0725 19.7382C21.9856 19.7382 21.5133 22.1498 21.5133 24.6396V34.0818H15.5867V14.9949H21.2763V17.6034H21.3559C21.9253 16.6298 22.7481 15.8289 23.7367 15.2859C24.7253 14.7429 25.8426 14.4783 26.9697 14.5201C32.9767 14.5201 34.0842 18.4713 34.0842 23.6117L34.0817 34.0824ZM8.89922 12.386C6.99969 12.3863 5.45953 10.8467 5.45922 8.94713C5.45891 7.0476 6.99844 5.50744 8.89797 5.50713C10.7975 5.50666 12.3377 7.04635 12.338 8.94588C12.3381 9.85807 11.9759 10.733 11.3311 11.3781C10.6862 12.0233 9.81142 12.3858 8.89922 12.386ZM11.8627 34.0826H5.92969V14.9949H11.8625V34.0824L11.8627 34.0826ZM37.0364 0.00291123H2.95157C1.34063 -0.0152138 0.0195349 1.27525 -0.000152588 2.88619V37.1132C0.0189099 38.7249 1.33985 40.0167 2.95141 39.9998H37.0364C38.6514 40.0198 39.9775 38.7281 39.9998 37.1132V2.88354C39.9769 1.26947 38.6506 -0.0208388 37.0364 0.000254983" fill="#0A66C2"/>
</svg>
