<svg width="49" height="49" viewBox="0 0 49 49" fill="none" xmlns="http://www.w3.org/2000/svg">
<g filter="url(#filter0_d_705_261)">
<path fill-rule="evenodd" clip-rule="evenodd" d="M30.2582 22.7569C30.4053 22.7513 30.4962 22.5942 30.4276 22.4639L21.5555 5.60995C21.4741 5.45539 21.2476 5.47207 21.1898 5.63689L15.0747 23.0618C15.0279 23.1949 15.13 23.3332 15.271 23.3279L30.2582 22.7569ZM33.907 22.6179C33.8301 22.6209 33.7583 22.5794 33.7224 22.5113L22.9813 2.10693C22.9394 2.02719 22.8492 1.98537 22.7613 2.0048L20.2368 2.56214C20.1079 2.59059 20.0414 2.73383 20.1029 2.8506L20.6768 3.94088C20.7027 3.99007 20.707 4.04782 20.6886 4.10028L13.9509 23.2991C13.934 23.3474 13.8891 23.3805 13.8379 23.3825C13.7664 23.3852 13.7119 23.4473 13.7183 23.5185L13.7464 23.8274C13.749 23.856 13.7454 23.8847 13.7359 23.9118L9.01144 37.3741C8.96981 37.4927 9.04666 37.6199 9.17104 37.6382L9.75728 37.7244C9.85205 37.7384 9.9434 37.6832 9.97512 37.5928L14.3991 24.9868C14.4263 24.9093 14.4981 24.8563 14.5802 24.8532L31.2232 24.2192C31.3001 24.2163 31.3719 24.2578 31.4078 24.3259L38.3258 37.4678C38.3678 37.5476 38.4579 37.5894 38.5459 37.57L41.0704 37.0126C41.1993 36.9842 41.2657 36.8409 41.2043 36.7242L34.5992 24.1769C34.5786 24.1377 34.606 24.0903 34.6502 24.0886C34.6847 24.0873 34.7111 24.0574 34.7079 24.023L34.5952 22.7814C34.5855 22.6754 34.4947 22.5956 34.3884 22.5996L33.907 22.6179Z" fill="#00BBE6"/>
<path d="M34.5952 22.7814L34.0972 22.8266L34.5952 22.7814ZM34.3884 22.5996L34.4074 23.0992L34.3884 22.5996ZM34.7079 24.023L35.2059 23.9778L34.7079 24.023ZM34.5992 24.1769L34.1568 24.4098L34.5992 24.1769ZM41.0704 37.0126L40.9626 36.5244L41.0704 37.0126ZM41.2043 36.7242L41.6467 36.4912L41.2043 36.7242ZM38.3258 37.4678L37.8834 37.7007L38.3258 37.4678ZM38.5459 37.57L38.4381 37.0817L38.5459 37.57ZM31.2232 24.2192L31.2422 24.7188L31.2232 24.2192ZM31.4078 24.3259L31.8502 24.093L31.4078 24.3259ZM14.3991 24.9868L13.9273 24.8213L14.3991 24.9868ZM14.5802 24.8532L14.5611 24.3536L14.5802 24.8532ZM9.75728 37.7244L9.83009 37.2298L9.75728 37.7244ZM9.97512 37.5928L9.50333 37.4272L9.97512 37.5928ZM9.01144 37.3741L9.48323 37.5396L9.01144 37.3741ZM9.17104 37.6382L9.24384 37.1435L9.17104 37.6382ZM13.7464 23.8274L13.2484 23.8727L13.7464 23.8274ZM13.7359 23.9118L14.2077 24.0773L13.7359 23.9118ZM13.7183 23.5185L13.2204 23.5637L13.7183 23.5185ZM13.9509 23.2991L14.4227 23.4646L13.9509 23.2991ZM20.6768 3.94088L20.2344 4.17379L20.6768 3.94088ZM20.6886 4.10028L21.1604 4.26585L20.6886 4.10028ZM20.2368 2.56214L20.129 2.0739L20.2368 2.56214ZM20.1029 2.8506L20.5454 2.6177L20.1029 2.8506ZM22.9813 2.10693L22.5389 2.33984L22.9813 2.10693ZM22.7613 2.0048L22.869 2.49304L22.7613 2.0048ZM33.7224 22.5113L33.28 22.7442L33.7224 22.5113ZM33.907 22.6179L33.888 22.1183L33.907 22.6179ZM15.0747 23.0618L15.5464 23.2274L15.0747 23.0618ZM15.271 23.3279L15.29 23.8275L15.271 23.3279ZM30.4276 22.4639L30.87 22.231L30.4276 22.4639ZM30.2582 22.7569L30.2773 23.2566L30.2582 22.7569ZM21.5555 5.60995L21.113 5.84286L21.5555 5.60995ZM21.113 5.84286L29.9852 22.6968L30.87 22.231L21.9979 5.37704L21.113 5.84286ZM15.5464 23.2274L21.6616 5.80246L20.718 5.47131L14.6029 22.8962L15.5464 23.2274ZM15.29 23.8275L30.2773 23.2566L30.2392 22.2573L15.2519 22.8282L15.29 23.8275ZM34.1649 22.2783L23.4238 1.87403L22.5389 2.33984L33.28 22.7442L34.1649 22.2783ZM22.6535 1.51655L20.129 2.0739L20.3446 3.05038L22.869 2.49304L22.6535 1.51655ZM19.6605 3.08351L20.2344 4.17379L21.1193 3.70798L20.5454 2.6177L19.6605 3.08351ZM20.2168 3.9347L13.4792 23.1335L14.4227 23.4646L21.1604 4.26585L20.2168 3.9347ZM14.2443 23.7822L14.2163 23.4733L13.2204 23.5637L13.2484 23.8727L14.2443 23.7822ZM13.2641 23.7462L8.53965 37.2085L9.48323 37.5396L14.2077 24.0773L13.2641 23.7462ZM9.09823 38.1328L9.68448 38.2191L9.83009 37.2298L9.24384 37.1435L9.09823 38.1328ZM10.4469 37.7584L14.8709 25.1524L13.9273 24.8213L9.50333 37.4272L10.4469 37.7584ZM31.2041 23.7196L14.5611 24.3536L14.5992 25.3528L31.2422 24.7188L31.2041 23.7196ZM30.9653 24.5588L37.8834 37.7007L38.7683 37.2349L31.8502 24.093L30.9653 24.5588ZM38.6537 38.0582L41.1782 37.5009L40.9626 36.5244L38.4381 37.0817L38.6537 38.0582ZM41.6467 36.4912L35.0417 23.944L34.1568 24.4098L40.7618 36.9571L41.6467 36.4912ZM34.0972 22.8266L34.21 24.0682L35.2059 23.9778L35.0931 22.7361L34.0972 22.8266ZM33.926 23.1176L34.4074 23.0992L34.3693 22.1L33.888 22.1183L33.926 23.1176ZM35.0931 22.7361C35.0594 22.3653 34.7414 22.0858 34.3693 22.1L34.4074 23.0992C34.248 23.1053 34.1116 22.9855 34.0972 22.8266L35.0931 22.7361ZM34.6693 24.5883C34.99 24.5761 35.2349 24.2974 35.2059 23.9778L34.21 24.0682C34.1872 23.8173 34.3795 23.5986 34.6312 23.589L34.6693 24.5883ZM35.0417 23.944C35.1924 24.2304 34.9927 24.576 34.6693 24.5883L34.6312 23.589C34.2192 23.6047 33.9648 24.045 34.1568 24.4098L35.0417 23.944ZM41.1782 37.5009C41.6292 37.4013 41.8618 36.8999 41.6467 36.4912L40.7618 36.9571C40.6696 36.7819 40.7693 36.567 40.9626 36.5244L41.1782 37.5009ZM37.8834 37.7007C38.0303 37.9798 38.3457 38.1262 38.6537 38.0582L38.4381 37.0817C38.5701 37.0526 38.7053 37.1153 38.7683 37.2349L37.8834 37.7007ZM31.2422 24.7188C31.1268 24.7232 31.0191 24.661 30.9653 24.5588L31.8502 24.093C31.7247 23.8545 31.4734 23.7093 31.2041 23.7196L31.2422 24.7188ZM14.8709 25.1524C14.8301 25.2687 14.7223 25.3482 14.5992 25.3528L14.5611 24.3536C14.2739 24.3645 14.0225 24.55 13.9273 24.8213L14.8709 25.1524ZM9.68448 38.2191C10.0162 38.2679 10.3359 38.0747 10.4469 37.7584L9.50333 37.4272C9.55091 37.2917 9.68794 37.2089 9.83009 37.2298L9.68448 38.2191ZM8.53965 37.2085C8.39395 37.6237 8.66291 38.0688 9.09823 38.1328L9.24384 37.1435C9.43041 37.171 9.54568 37.3617 9.48323 37.5396L8.53965 37.2085ZM13.2484 23.8727C13.2445 23.8299 13.2499 23.7867 13.2641 23.7462L14.2077 24.0773C14.2409 23.9827 14.2534 23.8821 14.2443 23.7822L13.2484 23.8727ZM13.8189 22.8828C13.4612 22.8965 13.188 23.2072 13.2204 23.5637L14.2163 23.4733C14.2357 23.6873 14.0717 23.8739 13.8569 23.8821L13.8189 22.8828ZM13.4792 23.1335C13.5302 22.9881 13.6649 22.8887 13.8189 22.8828L13.8569 23.8821C14.1134 23.8723 14.3378 23.7068 14.4227 23.4646L13.4792 23.1335ZM20.2344 4.17379C20.1956 4.10001 20.1892 4.01338 20.2168 3.9347L21.1604 4.26585C21.2248 4.08226 21.2099 3.88014 21.1193 3.70798L20.2344 4.17379ZM20.129 2.0739C19.678 2.17347 19.4453 2.67482 19.6605 3.08351L20.5454 2.6177C20.6376 2.79285 20.5378 3.00771 20.3446 3.05038L20.129 2.0739ZM23.4238 1.87403C23.2769 1.59493 22.9615 1.44856 22.6535 1.51655L22.869 2.49304C22.7371 2.52218 22.6019 2.45945 22.5389 2.33984L23.4238 1.87403ZM33.28 22.7442C33.4055 22.9826 33.6568 23.1278 33.926 23.1176L33.888 22.1183C34.0034 22.1139 34.1111 22.1761 34.1649 22.2783L33.28 22.7442ZM14.6029 22.8962C14.4394 23.3621 14.7966 23.8463 15.29 23.8275L15.2519 22.8282C15.4634 22.8202 15.6165 23.0277 15.5464 23.2274L14.6029 22.8962ZM29.9852 22.6968C29.8823 22.5015 30.0186 22.2657 30.2392 22.2573L30.2773 23.2566C30.792 23.237 31.11 22.6868 30.87 22.231L29.9852 22.6968ZM21.9979 5.37704C21.7131 4.83609 20.9204 4.89447 20.718 5.47131L21.6616 5.80246C21.5748 6.04967 21.2351 6.0747 21.113 5.84286L21.9979 5.37704Z" fill="#00BBE6"/>
<circle cx="24.5" cy="22.5" r="21.5" fill="#D9D9D9" fill-opacity="0.1" stroke="#00BBE6" stroke-width="2"/>
</g>
<defs>
<filter id="filter0_d_705_261" x="0" y="0" width="49" height="49" filterUnits="userSpaceOnUse" color-interpolation-filters="sRGB">
<feFlood flood-opacity="0" result="BackgroundImageFix"/>
<feColorMatrix in="SourceAlpha" type="matrix" values="0 0 0 0 0 0 0 0 0 0 0 0 0 0 0 0 0 0 127 0" result="hardAlpha"/>
<feOffset dy="2"/>
<feGaussianBlur stdDeviation="1"/>
<feComposite in2="hardAlpha" operator="out"/>
<feColorMatrix type="matrix" values="0 0 0 0 0 0 0 0 0 0 0 0 0 0 0 0 0 0 0.25 0"/>
<feBlend mode="normal" in2="BackgroundImageFix" result="effect1_dropShadow_705_261"/>
<feBlend mode="normal" in="SourceGraphic" in2="effect1_dropShadow_705_261" result="shape"/>
</filter>
</defs>
</svg>
