<svg width="1290" height="544" viewBox="0 0 1290 544" fill="none" xmlns="http://www.w3.org/2000/svg">
<g filter="url(#filter0_d_716_317)">
<path d="M1285.5 157.5L1220.5 269C1220.5 269 1131 157.5 1112.5 195C1094 232.5 1041 284.5 1041 284.5C1041 284.5 929.5 173 929.5 238C929.5 303 843 321.5 843 321.5C843 321.5 688 111 713 238C738 365 608 321.5 608 321.5C608 321.5 506 195 496.5 269C487 343 434.5 365 434.5 365C434.5 365 404 374 342 321.5C280 269 246 399 246 399C212.705 336.2 139.516 329.585 109.5 451.5C109.5 451.5 63.5001 399 29.5 451.5C-4.50002 504 7.50002 535 7.50002 535" stroke="#00BBE6"/>
<path d="M1285.05 1L1220.05 112.5C1220.05 112.5 1130.55 1 1112.05 38.5C1093.55 76 1040.55 128 1040.55 128C1040.55 128 929.055 16.5 929.055 81.5C929.055 146.5 842.555 165 842.555 165C842.555 165 687.555 -45.5 712.555 81.5C737.555 208.5 607.555 165 607.555 165C607.555 165 505.555 38.5 496.055 112.5C486.555 186.5 434.055 208.5 434.055 208.5C434.055 208.5 403.555 217.5 341.555 165C279.555 112.5 245.555 242.5 245.555 242.5C212.26 179.7 139.071 173.085 109.055 295C109.055 295 63.0548 242.5 29.0547 295C-4.94534 347.5 7.05471 378.5 7.05471 378.5" stroke="#12778E"/>
<path d="M1285.48 150.047L1220.48 261.547C1220.48 261.547 1130.98 150.047 1112.48 187.547C1093.98 225.047 1040.98 277.047 1040.98 277.047C1040.98 277.047 929.479 165.547 929.479 230.547C929.479 295.547 842.979 314.047 842.979 314.047C842.979 314.047 687.979 103.547 712.979 230.547C737.979 357.547 607.979 314.047 607.979 314.047C607.979 314.047 505.979 187.547 496.479 261.547C486.979 335.547 434.479 357.547 434.479 357.547C434.479 357.547 403.979 366.547 341.979 314.047C279.979 261.547 245.979 391.547 245.979 391.547C212.684 328.747 139.495 322.133 109.479 444.047C109.479 444.047 63.4788 391.547 29.4788 444.047C-4.52126 496.547 7.47878 527.547 7.47878 527.547" stroke="#00BBE6"/>
<path d="M1285.46 142.595L1220.46 254.095C1220.46 254.095 1130.96 142.595 1112.46 180.095C1093.96 217.595 1040.96 269.595 1040.96 269.595C1040.96 269.595 929.458 158.095 929.458 223.095C929.458 288.095 842.958 306.595 842.958 306.595C842.958 306.595 687.957 96.0952 712.958 223.095C737.958 350.095 607.958 306.595 607.958 306.595C607.958 306.595 505.958 180.095 496.458 254.095C486.957 328.095 434.458 350.095 434.458 350.095C434.458 350.095 403.957 359.095 341.958 306.595C279.958 254.095 245.958 384.095 245.958 384.095C212.662 321.295 139.474 314.681 109.458 436.595C109.458 436.595 63.4576 384.095 29.4575 436.595C-4.5425 489.095 7.45754 520.095 7.45754 520.095" stroke="#00BBE6"/>
<path d="M1285.44 135.143L1220.44 246.643C1220.44 246.643 1130.94 135.143 1112.44 172.643C1093.94 210.143 1040.94 262.143 1040.94 262.143C1040.94 262.143 929.436 150.643 929.436 215.643C929.436 280.643 842.936 299.143 842.936 299.143C842.936 299.143 687.936 88.6426 712.936 215.643C737.936 342.643 607.936 299.143 607.936 299.143C607.936 299.143 505.936 172.643 496.436 246.643C486.936 320.643 434.436 342.643 434.436 342.643C434.436 342.643 403.936 351.643 341.936 299.143C279.936 246.643 245.936 376.643 245.936 376.643C212.641 313.842 139.453 307.228 109.436 429.143C109.436 429.143 63.4363 376.643 29.4363 429.143C-4.56374 481.643 7.4363 512.643 7.4363 512.643" stroke="#00BBE6"/>
<path d="M1285.42 127.69L1220.42 239.19C1220.42 239.19 1130.92 127.69 1112.42 165.19C1093.92 202.69 1040.92 254.69 1040.92 254.69C1040.92 254.69 929.415 143.19 929.415 208.19C929.415 273.19 842.915 291.69 842.915 291.69C842.915 291.69 687.915 81.1904 712.915 208.19C737.915 335.19 607.915 291.69 607.915 291.69C607.915 291.69 505.915 165.19 496.415 239.19C486.915 313.19 434.415 335.19 434.415 335.19C434.415 335.19 403.915 344.19 341.915 291.69C279.915 239.19 245.915 369.19 245.915 369.19C212.62 306.39 139.431 299.776 109.415 421.69C109.415 421.69 63.4151 369.19 29.4151 421.69C-4.58498 474.191 7.41506 505.19 7.41506 505.19" stroke="#00BBE6"/>
<path d="M1285.39 120.238L1220.39 231.738C1220.39 231.738 1130.89 120.238 1112.39 157.738C1093.89 195.238 1040.89 247.238 1040.89 247.238C1040.89 247.238 929.394 135.738 929.394 200.738C929.394 265.738 842.894 284.238 842.894 284.238C842.894 284.238 687.894 73.7383 712.894 200.738C737.894 327.738 607.894 284.238 607.894 284.238C607.894 284.238 505.894 157.738 496.394 231.738C486.894 305.738 434.394 327.738 434.394 327.738C434.394 327.738 403.894 336.738 341.894 284.238C279.894 231.738 245.894 361.738 245.894 361.738C212.599 298.938 139.41 292.324 109.394 414.238C109.394 414.238 63.3941 361.738 29.3941 414.238C-4.60598 466.738 7.39407 497.738 7.39407 497.738" stroke="#00BBE6"/>
<path d="M1285.37 112.786L1220.37 224.286C1220.37 224.286 1130.87 112.786 1112.37 150.286C1093.87 187.786 1040.87 239.786 1040.87 239.786C1040.87 239.786 929.373 128.286 929.373 193.286C929.373 258.286 842.873 276.786 842.873 276.786C842.873 276.786 687.873 66.2856 712.873 193.286C737.873 320.286 607.873 276.786 607.873 276.786C607.873 276.786 505.873 150.286 496.373 224.286C486.873 298.286 434.373 320.286 434.373 320.286C434.373 320.286 403.873 329.286 341.873 276.786C279.873 224.286 245.873 354.286 245.873 354.286C212.578 291.486 139.389 284.871 109.373 406.786C109.373 406.786 63.3729 354.286 29.3728 406.786C-4.62722 459.286 7.37283 490.286 7.37283 490.286" stroke="#00BBE6"/>
<path d="M1285.35 105.333L1220.35 216.833C1220.35 216.833 1130.85 105.333 1112.35 142.833C1093.85 180.333 1040.85 232.333 1040.85 232.333C1040.85 232.333 929.352 120.833 929.352 185.833C929.352 250.833 842.852 269.333 842.852 269.333C842.852 269.333 687.852 58.8335 712.852 185.833C737.852 312.833 607.852 269.333 607.852 269.333C607.852 269.333 505.852 142.833 496.352 216.833C486.852 290.833 434.352 312.834 434.352 312.834C434.352 312.834 403.852 321.834 341.852 269.333C279.852 216.833 245.852 346.834 245.852 346.834C212.556 284.033 139.368 277.419 109.352 399.334C109.352 399.334 63.3516 346.834 29.3516 399.334C-4.64846 451.834 7.35159 482.834 7.35159 482.834" stroke="#00BBE6"/>
<path d="M1285.33 97.8809L1220.33 209.381C1220.33 209.381 1130.83 97.8809 1112.33 135.381C1093.83 172.881 1040.83 224.881 1040.83 224.881C1040.83 224.881 929.33 113.381 929.33 178.381C929.33 243.381 842.83 261.881 842.83 261.881C842.83 261.881 687.83 51.3809 712.83 178.381C737.83 305.381 607.83 261.881 607.83 261.881C607.83 261.881 505.83 135.381 496.33 209.381C486.83 283.381 434.33 305.381 434.33 305.381C434.33 305.381 403.83 314.381 341.83 261.881C279.83 209.381 245.83 339.381 245.83 339.381C212.535 276.581 139.347 269.966 109.33 391.881C109.33 391.881 63.3304 339.381 29.3303 391.881C-4.6697 444.381 7.33035 475.381 7.33035 475.381" stroke="#00BBE6"/>
<path d="M1285.31 90.4287L1220.31 201.929C1220.31 201.929 1130.81 90.4287 1112.31 127.929C1093.81 165.429 1040.81 217.429 1040.81 217.429C1040.81 217.429 929.309 105.929 929.309 170.929C929.309 235.929 842.809 254.429 842.809 254.429C842.809 254.429 687.809 43.9287 712.809 170.929C737.809 297.929 607.809 254.429 607.809 254.429C607.809 254.429 505.809 127.929 496.309 201.929C486.809 275.929 434.309 297.929 434.309 297.929C434.309 297.929 403.809 306.929 341.809 254.429C279.809 201.929 245.809 331.929 245.809 331.929C212.514 269.129 139.325 262.514 109.309 384.429C109.309 384.429 63.3092 331.929 29.3091 384.429C-4.69094 436.929 7.30911 467.929 7.30911 467.929" stroke="#00BBE6"/>
<path d="M1285.29 82.9761L1220.29 194.476C1220.29 194.476 1130.79 82.9761 1112.29 120.476C1093.79 157.976 1040.79 209.976 1040.79 209.976C1040.79 209.976 929.288 98.4761 929.288 163.476C929.288 228.476 842.788 246.976 842.788 246.976C842.788 246.976 687.788 36.4761 712.788 163.476C737.788 290.476 607.788 246.976 607.788 246.976C607.788 246.976 505.788 120.476 496.288 194.476C486.788 268.476 434.288 290.476 434.288 290.476C434.288 290.476 403.788 299.476 341.788 246.976C279.788 194.476 245.788 324.476 245.788 324.476C212.493 261.676 139.304 255.061 109.288 376.976C109.288 376.976 63.2879 324.476 29.2879 376.976C-4.71218 429.476 7.28787 460.476 7.28787 460.476" stroke="#00BBE6"/>
<path d="M1285.27 75.5239L1220.27 187.024C1220.27 187.024 1130.77 75.5239 1112.27 113.024C1093.77 150.524 1040.77 202.524 1040.77 202.524C1040.77 202.524 929.267 91.0239 929.267 156.024C929.267 221.024 842.767 239.524 842.767 239.524C842.767 239.524 687.767 29.0239 712.767 156.024C737.767 283.024 607.767 239.524 607.767 239.524C607.767 239.524 505.767 113.024 496.267 187.024C486.767 261.024 434.267 283.024 434.267 283.024C434.267 283.024 403.767 292.024 341.767 239.524C279.767 187.024 245.767 317.024 245.767 317.024C212.472 254.224 139.283 247.609 109.267 369.524C109.267 369.524 63.2669 317.024 29.2669 369.524C-4.73318 422.024 7.26687 453.024 7.26687 453.024" stroke="#00BBE6"/>
<path d="M1285.25 68.0713L1220.25 179.571C1220.25 179.571 1130.75 68.0713 1112.25 105.571C1093.75 143.071 1040.75 195.071 1040.75 195.071C1040.75 195.071 929.246 83.5713 929.246 148.571C929.246 213.571 842.746 232.071 842.746 232.071C842.746 232.071 687.746 21.5713 712.746 148.571C737.746 275.571 607.746 232.071 607.746 232.071C607.746 232.071 505.746 105.571 496.246 179.571C486.746 253.571 434.246 275.571 434.246 275.571C434.246 275.571 403.746 284.571 341.746 232.071C279.746 179.571 245.746 309.571 245.746 309.571C212.451 246.771 139.262 240.157 109.246 362.071C109.246 362.071 63.2457 309.571 29.2456 362.071C-4.75442 414.571 7.24563 445.571 7.24563 445.571" stroke="#00BBE6"/>
<path d="M1285.22 60.6191L1220.22 172.119C1220.22 172.119 1130.72 60.6191 1112.22 98.1191C1093.72 135.619 1040.72 187.619 1040.72 187.619C1040.72 187.619 929.224 76.1191 929.224 141.119C929.224 206.119 842.724 224.619 842.724 224.619C842.724 224.619 687.724 14.1191 712.724 141.119C737.724 268.119 607.724 224.619 607.724 224.619C607.724 224.619 505.724 98.1191 496.224 172.119C486.724 246.119 434.224 268.119 434.224 268.119C434.224 268.119 403.724 277.119 341.724 224.619C279.724 172.119 245.724 302.119 245.724 302.119C212.429 239.319 139.241 232.705 109.224 354.619C109.224 354.619 63.2244 302.119 29.2244 354.619C-4.77566 407.119 7.22439 438.119 7.22439 438.119" stroke="#00BBE6"/>
<path d="M1285.2 53.1665L1220.2 164.666C1220.2 164.666 1130.7 53.1665 1112.2 90.6665C1093.7 128.166 1040.7 180.166 1040.7 180.166C1040.7 180.166 929.203 68.6665 929.203 133.667C929.203 198.667 842.703 217.167 842.703 217.167C842.703 217.167 687.703 6.6665 712.703 133.667C737.703 260.667 607.703 217.167 607.703 217.167C607.703 217.167 505.703 90.6665 496.203 164.666C486.703 238.666 434.203 260.667 434.203 260.667C434.203 260.667 403.703 269.667 341.703 217.167C279.703 164.666 245.703 294.667 245.703 294.667C212.408 231.866 139.219 225.252 109.203 347.167C109.203 347.167 63.2032 294.667 29.2031 347.167C-4.7969 399.667 7.20315 430.667 7.20315 430.667" stroke="#00BBE6"/>
<path d="M1285.18 45.7144L1220.18 157.214C1220.18 157.214 1130.68 45.7144 1112.18 83.2144C1093.68 120.714 1040.68 172.714 1040.68 172.714C1040.68 172.714 929.182 61.2144 929.182 126.214C929.182 191.214 842.682 209.714 842.682 209.714C842.682 209.714 687.682 -0.785645 712.682 126.214C737.682 253.214 607.682 209.714 607.682 209.714C607.682 209.714 505.682 83.2144 496.182 157.214C486.682 231.214 434.182 253.214 434.182 253.214C434.182 253.214 403.682 262.214 341.682 209.714C279.682 157.214 245.682 287.214 245.682 287.214C212.387 224.414 139.198 217.8 109.182 339.714C109.182 339.714 63.182 287.214 29.1819 339.714C-4.81814 392.214 7.18191 423.214 7.18191 423.214" stroke="#00BBE6"/>
<path d="M1285.16 38.2617L1220.16 149.762C1220.16 149.762 1130.66 38.2617 1112.16 75.7617C1093.66 113.262 1040.66 165.262 1040.66 165.262C1040.66 165.262 929.161 53.7617 929.161 118.762C929.161 183.762 842.661 202.262 842.661 202.262C842.661 202.262 687.661 -8.23828 712.661 118.762C737.661 245.762 607.661 202.262 607.661 202.262C607.661 202.262 505.661 75.7617 496.161 149.762C486.661 223.762 434.161 245.762 434.161 245.762C434.161 245.762 403.661 254.762 341.661 202.262C279.661 149.762 245.661 279.762 245.661 279.762C212.366 216.962 139.177 210.347 109.161 332.262C109.161 332.262 63.1607 279.762 29.1607 332.262C-4.83938 384.762 7.16067 415.762 7.16067 415.762" stroke="#00BBE6"/>
<path d="M1285.14 30.8096L1220.14 142.31C1220.14 142.31 1130.64 30.8096 1112.14 68.3096C1093.64 105.81 1040.64 157.81 1040.64 157.81C1040.64 157.81 929.139 46.3096 929.139 111.31C929.139 176.31 842.639 194.81 842.639 194.81C842.639 194.81 687.639 -15.6904 712.639 111.31C737.639 238.31 607.639 194.81 607.639 194.81C607.639 194.81 505.639 68.3096 496.139 142.31C486.639 216.31 434.139 238.31 434.139 238.31C434.139 238.31 403.639 247.31 341.639 194.81C279.639 142.31 245.639 272.31 245.639 272.31C212.344 209.509 139.156 202.895 109.139 324.81C109.139 324.81 63.1395 272.31 29.1394 324.81C-4.86062 377.31 7.13943 408.31 7.13943 408.31" stroke="#00BBE6"/>
<path d="M1285.12 23.3569L1220.12 134.857C1220.12 134.857 1130.62 23.3569 1112.12 60.8569C1093.62 98.3569 1040.62 150.357 1040.62 150.357C1040.62 150.357 929.118 38.8569 929.118 103.857C929.118 168.857 842.618 187.357 842.618 187.357C842.618 187.357 687.618 -23.1431 712.618 103.857C737.618 230.857 607.618 187.357 607.618 187.357C607.618 187.357 505.618 60.8569 496.118 134.857C486.618 208.857 434.118 230.857 434.118 230.857C434.118 230.857 403.618 239.857 341.618 187.357C279.618 134.857 245.618 264.857 245.618 264.857C212.323 202.057 139.135 195.442 109.118 317.357C109.118 317.357 63.1185 264.857 29.1184 317.357C-4.88161 369.857 7.11843 400.857 7.11843 400.857" stroke="#0BA0C2"/>
<path d="M1285.1 15.9048L1220.1 127.405C1220.1 127.405 1130.6 15.9048 1112.1 53.4048C1093.6 90.9048 1040.6 142.905 1040.6 142.905C1040.6 142.905 929.097 31.4048 929.097 96.4048C929.097 161.405 842.597 179.905 842.597 179.905C842.597 179.905 687.597 -30.5952 712.597 96.4048C737.597 223.405 607.597 179.905 607.597 179.905C607.597 179.905 505.597 53.4048 496.097 127.405C486.597 201.405 434.097 223.405 434.097 223.405C434.097 223.405 403.597 232.405 341.597 179.905C279.597 127.405 245.597 257.405 245.597 257.405C212.302 194.605 139.114 187.99 109.097 309.905C109.097 309.905 63.0972 257.405 29.0972 309.905C-4.90285 362.405 7.09719 393.405 7.09719 393.405" stroke="#36A5BE"/>
<path d="M1285.08 8.45215L1220.08 119.952C1220.08 119.952 1130.58 8.45215 1112.08 45.9521C1093.58 83.4521 1040.58 135.452 1040.58 135.452C1040.58 135.452 929.076 23.9521 929.076 88.9521C929.076 153.952 842.576 172.452 842.576 172.452C842.576 172.452 687.576 -38.0479 712.576 88.9521C737.576 215.952 607.576 172.452 607.576 172.452C607.576 172.452 505.576 45.9521 496.076 119.952C486.576 193.952 434.076 215.952 434.076 215.952C434.076 215.952 403.576 224.952 341.576 172.452C279.576 119.952 245.576 249.952 245.576 249.952C212.281 187.152 139.092 180.538 109.076 302.452C109.076 302.452 63.076 249.952 29.076 302.452C-4.9241 354.952 7.07595 385.952 7.07595 385.952" stroke="#1797B5"/>
</g>
<defs>
<filter id="filter0_d_716_317" x="0.5" y="0.748047" width="1289.43" height="542.432" filterUnits="userSpaceOnUse" color-interpolation-filters="sRGB">
<feFlood flood-opacity="0" result="BackgroundImageFix"/>
<feColorMatrix in="SourceAlpha" type="matrix" values="0 0 0 0 0 0 0 0 0 0 0 0 0 0 0 0 0 0 127 0" result="hardAlpha"/>
<feOffset dy="4"/>
<feGaussianBlur stdDeviation="2"/>
<feComposite in2="hardAlpha" operator="out"/>
<feColorMatrix type="matrix" values="0 0 0 0 0 0 0 0 0 0 0 0 0 0 0 0 0 0 0.25 0"/>
<feBlend mode="normal" in2="BackgroundImageFix" result="effect1_dropShadow_716_317"/>
<feBlend mode="normal" in="SourceGraphic" in2="effect1_dropShadow_716_317" result="shape"/>
</filter>
</defs>
</svg>
