<svg width="882" height="809" viewBox="0 0 882 809" fill="none" xmlns="http://www.w3.org/2000/svg">
<path d="M1 818.5C74.6 653.3 188.667 665 236.5 691.5C236.5 691.5 238.277 574.556 290.5 539C350.764 497.969 475 567.5 475 567.5C475 567.5 462.813 461.325 503.5 418C558.839 359.072 710.5 418 710.5 418C710.5 418 709.451 297.637 758 249.5C820.018 188.009 980.5 227 980.5 227C980.5 227 987.288 120.529 1034.5 84C1077.38 50.8212 1171.5 61.5 1171.5 61.5L1209.5 1" stroke="#0E667A"/>
<path d="M243 866.5C316.6 701.3 430.667 713 478.5 739.5C478.5 739.5 480.277 622.556 532.5 587C592.764 545.969 717 615.5 717 615.5C717 615.5 704.813 509.325 745.5 466C800.839 407.072 952.5 466 952.5 466C952.5 466 951.451 345.637 1000 297.5C1062.02 236.009 1222.5 275 1222.5 275C1222.5 275 1229.29 168.529 1276.5 132C1319.38 98.8212 1413.5 109.5 1413.5 109.5L1451.5 49" stroke="#00BBE6"/>
<path d="M12.5239 820.785C86.1239 655.585 200.191 667.285 248.024 693.785C248.024 693.785 249.801 576.842 302.024 541.286C362.288 500.254 486.524 569.786 486.524 569.786C486.524 569.786 474.337 463.611 515.024 420.286C570.363 361.358 722.024 420.286 722.024 420.286C722.024 420.286 720.974 299.922 769.524 251.786C831.542 190.295 992.024 229.286 992.024 229.286C992.024 229.286 998.812 122.815 1046.02 86.2856C1088.91 53.1068 1183.02 63.7856 1183.02 63.7856L1221.02 3.28564" stroke="#1787A0"/>
<path d="M24.0476 823.071C97.6476 657.871 211.714 669.571 259.548 696.071C259.548 696.071 261.325 579.128 313.548 543.571C373.812 502.54 498.048 572.071 498.048 572.071C498.048 572.071 485.861 465.896 526.548 422.571C581.887 363.644 733.548 422.571 733.548 422.571C733.548 422.571 732.498 302.208 781.048 254.071C843.066 192.581 1003.55 231.571 1003.55 231.571C1003.55 231.571 1010.34 125.101 1057.55 88.5713C1100.43 55.3925 1194.55 66.0713 1194.55 66.0713L1232.55 5.57129" stroke="#26849A"/>
<path d="M35.5715 825.357C109.172 660.157 223.238 671.857 271.072 698.357C271.072 698.357 272.848 581.413 325.072 545.857C385.336 504.826 509.572 574.357 509.572 574.357C509.572 574.357 497.385 468.182 538.072 424.857C593.411 365.929 745.072 424.857 745.072 424.857C745.072 424.857 744.022 304.494 792.572 256.357C854.59 194.866 1015.07 233.857 1015.07 233.857C1015.07 233.857 1021.86 127.386 1069.07 90.8569C1111.95 57.6781 1206.07 68.3569 1206.07 68.3569L1244.07 7.85693" stroke="#5BB1C5"/>
<path d="M47.0952 827.643C120.695 662.443 234.762 674.143 282.595 700.643C282.595 700.643 284.372 583.699 336.595 548.143C396.859 507.112 521.095 576.643 521.095 576.643C521.095 576.643 508.908 470.468 549.595 427.143C604.934 368.216 756.595 427.143 756.595 427.143C756.595 427.143 755.546 306.78 804.095 258.643C866.113 197.152 1026.6 236.143 1026.6 236.143C1026.6 236.143 1033.38 129.673 1080.6 93.1431C1123.48 59.9643 1217.6 70.6431 1217.6 70.6431L1255.6 10.1431" stroke="#00BBE6"/>
<path d="M58.6191 829.929C132.219 664.729 246.286 676.429 294.119 702.929C294.119 702.929 295.896 585.985 348.119 550.429C408.383 509.397 532.619 578.929 532.619 578.929C532.619 578.929 520.432 472.754 561.119 429.429C616.458 370.501 768.119 429.429 768.119 429.429C768.119 429.429 767.07 309.065 815.619 260.929C877.637 199.438 1038.12 238.429 1038.12 238.429C1038.12 238.429 1044.91 131.958 1092.12 95.4287C1135 62.2499 1229.12 72.9287 1229.12 72.9287L1267.12 12.4287" stroke="#00BBE6"/>
<path d="M70.1428 832.214C143.743 667.014 257.809 678.714 305.643 705.214C305.643 705.214 307.42 588.271 359.643 552.714C419.907 511.683 544.143 581.214 544.143 581.214C544.143 581.214 531.956 475.04 572.643 431.714C627.982 372.787 779.643 431.714 779.643 431.714C779.643 431.714 778.593 311.351 827.143 263.214C889.161 201.724 1049.64 240.714 1049.64 240.714C1049.64 240.714 1056.43 134.244 1103.64 97.7144C1146.52 64.5356 1240.64 75.2144 1240.64 75.2144L1278.64 14.7144" stroke="#00BBE6"/>
<path d="M81.6667 834.5C155.267 669.3 269.333 681 317.167 707.5C317.167 707.5 318.944 590.556 371.167 555C431.431 513.969 555.667 583.5 555.667 583.5C555.667 583.5 543.48 477.325 584.167 434C639.506 375.072 791.167 434 791.167 434C791.167 434 790.117 313.637 838.667 265.5C900.685 204.009 1061.17 243 1061.17 243C1061.17 243 1067.95 136.529 1115.17 100C1158.05 66.8212 1252.17 77.5 1252.17 77.5L1290.17 17" stroke="#00BBE6"/>
<path d="M93.1904 836.785C166.79 671.585 280.857 683.285 328.69 709.785C328.69 709.785 330.467 592.842 382.69 557.286C442.955 516.254 567.19 585.786 567.19 585.786C567.19 585.786 555.004 479.611 595.69 436.286C651.03 377.358 802.69 436.286 802.69 436.286C802.69 436.286 801.641 315.922 850.19 267.786C912.209 206.295 1072.69 245.286 1072.69 245.286C1072.69 245.286 1079.48 138.815 1126.69 102.286C1169.57 69.1068 1263.69 79.7856 1263.69 79.7856L1301.69 19.2856" stroke="#00BBE6"/>
<path d="M104.714 839.071C178.314 673.871 292.381 685.571 340.214 712.071C340.214 712.071 341.991 595.128 394.214 559.571C454.479 518.54 578.714 588.071 578.714 588.071C578.714 588.071 566.527 481.896 607.214 438.571C662.553 379.644 814.214 438.571 814.214 438.571C814.214 438.571 813.165 318.208 861.714 270.071C923.733 208.581 1084.21 247.571 1084.21 247.571C1084.21 247.571 1091 141.101 1138.21 104.571C1181.1 71.3925 1275.21 82.0713 1275.21 82.0713L1313.21 21.5713" stroke="#00BBE6"/>
<path d="M116.238 841.357C189.838 676.157 303.905 687.857 351.738 714.357C351.738 714.357 353.515 597.413 405.738 561.857C466.002 520.826 590.238 590.357 590.238 590.357C590.238 590.357 578.051 484.182 618.738 440.857C674.077 381.929 825.738 440.857 825.738 440.857C825.738 440.857 824.689 320.494 873.238 272.357C935.256 210.866 1095.74 249.857 1095.74 249.857C1095.74 249.857 1102.53 143.386 1149.74 106.857C1192.62 73.6781 1286.74 84.3569 1286.74 84.3569L1324.74 23.8569" stroke="#00BBE6"/>
<path d="M127.762 843.643C201.362 678.443 315.429 690.143 363.262 716.643C363.262 716.643 365.039 599.699 417.262 564.143C477.526 523.112 601.762 592.643 601.762 592.643C601.762 592.643 589.575 486.468 630.262 443.143C685.601 384.216 837.262 443.143 837.262 443.143C837.262 443.143 836.213 322.78 884.762 274.643C946.78 213.152 1107.26 252.143 1107.26 252.143C1107.26 252.143 1114.05 145.673 1161.26 109.143C1204.14 75.9643 1298.26 86.6431 1298.26 86.6431L1336.26 26.1431" stroke="#00BBE6"/>
<path d="M139.286 845.929C212.886 680.729 326.952 692.429 374.786 718.929C374.786 718.929 376.563 601.985 428.786 566.429C489.05 525.397 613.286 594.929 613.286 594.929C613.286 594.929 601.099 488.754 641.786 445.429C697.125 386.501 848.786 445.429 848.786 445.429C848.786 445.429 847.736 325.065 896.286 276.929C958.304 215.438 1118.79 254.429 1118.79 254.429C1118.79 254.429 1125.57 147.958 1172.79 111.429C1215.67 78.2499 1309.79 88.9287 1309.79 88.9287L1347.79 28.4287" stroke="#00BBE6"/>
<path d="M150.81 848.214C224.41 683.014 338.476 694.714 386.31 721.214C386.31 721.214 388.087 604.271 440.31 568.714C500.574 527.683 624.81 597.214 624.81 597.214C624.81 597.214 612.623 491.04 653.31 447.714C708.649 388.787 860.31 447.714 860.31 447.714C860.31 447.714 859.26 327.351 907.81 279.214C969.828 217.724 1130.31 256.714 1130.31 256.714C1130.31 256.714 1137.1 150.244 1184.31 113.714C1227.19 80.5356 1321.31 91.2144 1321.31 91.2144L1359.31 30.7144" stroke="#00BBE6"/>
<path d="M162.333 850.5C235.933 685.3 350 697 397.833 723.5C397.833 723.5 399.61 606.556 451.833 571C512.097 529.969 636.333 599.5 636.333 599.5C636.333 599.5 624.146 493.325 664.833 450C720.172 391.072 871.833 450 871.833 450C871.833 450 870.784 329.637 919.333 281.5C981.351 220.009 1141.83 259 1141.83 259C1141.83 259 1148.62 152.529 1195.83 116C1238.71 82.8212 1332.83 93.5 1332.83 93.5L1370.83 33" stroke="#00BBE6"/>
<path d="M173.857 852.785C247.457 687.585 361.524 699.285 409.357 725.785C409.357 725.785 411.134 608.842 463.357 573.286C523.621 532.254 647.857 601.786 647.857 601.786C647.857 601.786 635.67 495.611 676.357 452.286C731.696 393.358 883.357 452.286 883.357 452.286C883.357 452.286 882.308 331.922 930.857 283.786C992.875 222.295 1153.36 261.286 1153.36 261.286C1153.36 261.286 1160.15 154.815 1207.36 118.286C1250.24 85.1068 1344.36 95.7856 1344.36 95.7856L1382.36 35.2856" stroke="#00BBE6"/>
<path d="M185.381 855.071C258.981 689.871 373.048 701.571 420.881 728.071C420.881 728.071 422.658 611.128 474.881 575.571C535.145 534.54 659.381 604.071 659.381 604.071C659.381 604.071 647.194 497.896 687.881 454.571C743.22 395.644 894.881 454.571 894.881 454.571C894.881 454.571 893.831 334.208 942.381 286.071C1004.4 224.581 1164.88 263.571 1164.88 263.571C1164.88 263.571 1171.67 157.101 1218.88 120.571C1261.76 87.3925 1355.88 98.0713 1355.88 98.0713L1393.88 37.5713" stroke="#00BBE6"/>
<path d="M196.905 857.357C270.505 692.157 384.571 703.857 432.405 730.357C432.405 730.357 434.182 613.413 486.405 577.857C546.669 536.826 670.905 606.357 670.905 606.357C670.905 606.357 658.718 500.182 699.405 456.857C754.744 397.929 906.405 456.857 906.405 456.857C906.405 456.857 905.355 336.494 953.905 288.357C1015.92 226.866 1176.4 265.857 1176.4 265.857C1176.4 265.857 1183.19 159.386 1230.4 122.857C1273.29 89.6781 1367.4 100.357 1367.4 100.357L1405.4 39.8569" stroke="#00BBE6"/>
<path d="M208.428 859.643C282.028 694.443 396.095 706.143 443.928 732.643C443.928 732.643 445.705 615.699 497.928 580.143C558.193 539.112 682.428 608.643 682.428 608.643C682.428 608.643 670.242 502.468 710.928 459.143C766.268 400.216 917.928 459.143 917.928 459.143C917.928 459.143 916.879 338.78 965.428 290.643C1027.45 229.152 1187.93 268.143 1187.93 268.143C1187.93 268.143 1194.72 161.673 1241.93 125.143C1284.81 91.9643 1378.93 102.643 1378.93 102.643L1416.93 42.1431" stroke="#00BBE6"/>
<path d="M219.952 861.929C293.552 696.729 407.619 708.429 455.452 734.929C455.452 734.929 457.229 617.985 509.452 582.429C569.717 541.397 693.952 610.929 693.952 610.929C693.952 610.929 681.766 504.754 722.452 461.429C777.791 402.501 929.452 461.429 929.452 461.429C929.452 461.429 928.403 341.065 976.952 292.929C1038.97 231.438 1199.45 270.429 1199.45 270.429C1199.45 270.429 1206.24 163.958 1253.45 127.429C1296.33 94.2499 1390.45 104.929 1390.45 104.929L1428.45 44.4287" stroke="#00BBE6"/>
<path d="M231.476 864.214C305.076 699.014 419.143 710.714 466.976 737.214C466.976 737.214 468.753 620.271 520.976 584.714C581.24 543.683 705.476 613.214 705.476 613.214C705.476 613.214 693.289 507.04 733.976 463.714C789.315 404.787 940.976 463.714 940.976 463.714C940.976 463.714 939.927 343.351 988.476 295.214C1050.49 233.724 1210.98 272.714 1210.98 272.714C1210.98 272.714 1217.76 166.244 1264.98 129.714C1307.86 96.5356 1401.98 107.214 1401.98 107.214L1439.98 46.7144" stroke="#00BBE6"/>
</svg>
