<svg width="886" height="809" viewBox="0 0 886 809" fill="none" xmlns="http://www.w3.org/2000/svg">
<g filter="url(#filter0_di_716_445)">
<path d="M5 818.5C78.6 653.3 192.667 665 240.5 691.5C240.5 691.5 242.277 574.556 294.5 539C354.764 497.969 479 567.5 479 567.5C479 567.5 466.813 461.325 507.5 418C562.839 359.072 714.5 418 714.5 418C714.5 418 713.451 297.637 762 249.5C824.018 188.009 984.5 227 984.5 227C984.5 227 991.288 120.529 1038.5 84C1081.38 50.8212 1175.5 61.5 1175.5 61.5L1213.5 1" stroke="#0E667A"/>
<path d="M247 866.5C320.6 701.3 434.667 713 482.5 739.5C482.5 739.5 484.277 622.556 536.5 587C596.764 545.969 721 615.5 721 615.5C721 615.5 708.813 509.325 749.5 466C804.839 407.072 956.5 466 956.5 466C956.5 466 955.451 345.637 1004 297.5C1066.02 236.009 1226.5 275 1226.5 275C1226.5 275 1233.29 168.529 1280.5 132C1323.38 98.8212 1417.5 109.5 1417.5 109.5L1455.5 49" stroke="#00BBE6"/>
<path d="M16.5239 820.785C90.1239 655.585 204.191 667.285 252.024 693.785C252.024 693.785 253.801 576.842 306.024 541.286C366.288 500.254 490.524 569.786 490.524 569.786C490.524 569.786 478.337 463.611 519.024 420.286C574.363 361.358 726.024 420.286 726.024 420.286C726.024 420.286 724.974 299.922 773.524 251.786C835.542 190.295 996.024 229.286 996.024 229.286C996.024 229.286 1002.81 122.815 1050.02 86.2856C1092.91 53.1068 1187.02 63.7856 1187.02 63.7856L1225.02 3.28564" stroke="#1787A0"/>
<path d="M28.0476 823.071C101.648 657.871 215.714 669.571 263.548 696.071C263.548 696.071 265.325 579.128 317.548 543.571C377.812 502.54 502.048 572.071 502.048 572.071C502.048 572.071 489.861 465.896 530.548 422.571C585.887 363.644 737.548 422.571 737.548 422.571C737.548 422.571 736.498 302.208 785.048 254.071C847.066 192.581 1007.55 231.571 1007.55 231.571C1007.55 231.571 1014.34 125.101 1061.55 88.5713C1104.43 55.3925 1198.55 66.0713 1198.55 66.0713L1236.55 5.57129" stroke="#26849A"/>
<path d="M39.5715 825.357C113.172 660.157 227.238 671.857 275.072 698.357C275.072 698.357 276.848 581.413 329.072 545.857C389.336 504.826 513.572 574.357 513.572 574.357C513.572 574.357 501.385 468.182 542.072 424.857C597.411 365.929 749.072 424.857 749.072 424.857C749.072 424.857 748.022 304.494 796.572 256.357C858.59 194.866 1019.07 233.857 1019.07 233.857C1019.07 233.857 1025.86 127.386 1073.07 90.8569C1115.95 57.6781 1210.07 68.3569 1210.07 68.3569L1248.07 7.85693" stroke="#5BB1C5"/>
<path d="M51.0952 827.643C124.695 662.443 238.762 674.143 286.595 700.643C286.595 700.643 288.372 583.699 340.595 548.143C400.859 507.112 525.095 576.643 525.095 576.643C525.095 576.643 512.908 470.468 553.595 427.143C608.934 368.216 760.595 427.143 760.595 427.143C760.595 427.143 759.546 306.78 808.095 258.643C870.113 197.152 1030.6 236.143 1030.6 236.143C1030.6 236.143 1037.38 129.673 1084.6 93.1431C1127.48 59.9643 1221.6 70.6431 1221.6 70.6431L1259.6 10.1431" stroke="#00BBE6"/>
<path d="M62.6191 829.929C136.219 664.729 250.286 676.429 298.119 702.929C298.119 702.929 299.896 585.985 352.119 550.429C412.383 509.397 536.619 578.929 536.619 578.929C536.619 578.929 524.432 472.754 565.119 429.429C620.458 370.501 772.119 429.429 772.119 429.429C772.119 429.429 771.07 309.065 819.619 260.929C881.637 199.438 1042.12 238.429 1042.12 238.429C1042.12 238.429 1048.91 131.958 1096.12 95.4287C1139 62.2499 1233.12 72.9287 1233.12 72.9287L1271.12 12.4287" stroke="#00BBE6"/>
<path d="M74.1428 832.214C147.743 667.014 261.809 678.714 309.643 705.214C309.643 705.214 311.42 588.271 363.643 552.714C423.907 511.683 548.143 581.214 548.143 581.214C548.143 581.214 535.956 475.04 576.643 431.714C631.982 372.787 783.643 431.714 783.643 431.714C783.643 431.714 782.593 311.351 831.143 263.214C893.161 201.724 1053.64 240.714 1053.64 240.714C1053.64 240.714 1060.43 134.244 1107.64 97.7144C1150.52 64.5356 1244.64 75.2144 1244.64 75.2144L1282.64 14.7144" stroke="#00BBE6"/>
<path d="M85.6667 834.5C159.267 669.3 273.333 681 321.167 707.5C321.167 707.5 322.944 590.556 375.167 555C435.431 513.969 559.667 583.5 559.667 583.5C559.667 583.5 547.48 477.325 588.167 434C643.506 375.072 795.167 434 795.167 434C795.167 434 794.117 313.637 842.667 265.5C904.685 204.009 1065.17 243 1065.17 243C1065.17 243 1071.95 136.529 1119.17 100C1162.05 66.8212 1256.17 77.5 1256.17 77.5L1294.17 17" stroke="#00BBE6"/>
<path d="M97.1904 836.785C170.79 671.585 284.857 683.285 332.69 709.785C332.69 709.785 334.467 592.842 386.69 557.286C446.955 516.254 571.19 585.786 571.19 585.786C571.19 585.786 559.004 479.611 599.69 436.286C655.03 377.358 806.69 436.286 806.69 436.286C806.69 436.286 805.641 315.922 854.19 267.786C916.209 206.295 1076.69 245.286 1076.69 245.286C1076.69 245.286 1083.48 138.815 1130.69 102.286C1173.57 69.1068 1267.69 79.7856 1267.69 79.7856L1305.69 19.2856" stroke="#00BBE6"/>
<path d="M108.714 839.071C182.314 673.871 296.381 685.571 344.214 712.071C344.214 712.071 345.991 595.128 398.214 559.571C458.479 518.54 582.714 588.071 582.714 588.071C582.714 588.071 570.527 481.896 611.214 438.571C666.553 379.644 818.214 438.571 818.214 438.571C818.214 438.571 817.165 318.208 865.714 270.071C927.733 208.581 1088.21 247.571 1088.21 247.571C1088.21 247.571 1095 141.101 1142.21 104.571C1185.1 71.3925 1279.21 82.0713 1279.21 82.0713L1317.21 21.5713" stroke="#00BBE6"/>
<path d="M120.238 841.357C193.838 676.157 307.905 687.857 355.738 714.357C355.738 714.357 357.515 597.413 409.738 561.857C470.002 520.826 594.238 590.357 594.238 590.357C594.238 590.357 582.051 484.182 622.738 440.857C678.077 381.929 829.738 440.857 829.738 440.857C829.738 440.857 828.689 320.494 877.238 272.357C939.256 210.866 1099.74 249.857 1099.74 249.857C1099.74 249.857 1106.53 143.386 1153.74 106.857C1196.62 73.6781 1290.74 84.3569 1290.74 84.3569L1328.74 23.8569" stroke="#00BBE6"/>
<path d="M131.762 843.643C205.362 678.443 319.429 690.143 367.262 716.643C367.262 716.643 369.039 599.699 421.262 564.143C481.526 523.112 605.762 592.643 605.762 592.643C605.762 592.643 593.575 486.468 634.262 443.143C689.601 384.216 841.262 443.143 841.262 443.143C841.262 443.143 840.213 322.78 888.762 274.643C950.78 213.152 1111.26 252.143 1111.26 252.143C1111.26 252.143 1118.05 145.673 1165.26 109.143C1208.14 75.9643 1302.26 86.6431 1302.26 86.6431L1340.26 26.1431" stroke="#00BBE6"/>
<path d="M143.286 845.929C216.886 680.729 330.952 692.429 378.786 718.929C378.786 718.929 380.563 601.985 432.786 566.429C493.05 525.397 617.286 594.929 617.286 594.929C617.286 594.929 605.099 488.754 645.786 445.429C701.125 386.501 852.786 445.429 852.786 445.429C852.786 445.429 851.736 325.065 900.286 276.929C962.304 215.438 1122.79 254.429 1122.79 254.429C1122.79 254.429 1129.57 147.958 1176.79 111.429C1219.67 78.2499 1313.79 88.9287 1313.79 88.9287L1351.79 28.4287" stroke="#00BBE6"/>
<path d="M154.81 848.214C228.41 683.014 342.476 694.714 390.31 721.214C390.31 721.214 392.087 604.271 444.31 568.714C504.574 527.683 628.81 597.214 628.81 597.214C628.81 597.214 616.623 491.04 657.31 447.714C712.649 388.787 864.31 447.714 864.31 447.714C864.31 447.714 863.26 327.351 911.81 279.214C973.828 217.724 1134.31 256.714 1134.31 256.714C1134.31 256.714 1141.1 150.244 1188.31 113.714C1231.19 80.5356 1325.31 91.2144 1325.31 91.2144L1363.31 30.7144" stroke="#00BBE6"/>
<path d="M166.333 850.5C239.933 685.3 354 697 401.833 723.5C401.833 723.5 403.61 606.556 455.833 571C516.097 529.969 640.333 599.5 640.333 599.5C640.333 599.5 628.146 493.325 668.833 450C724.172 391.072 875.833 450 875.833 450C875.833 450 874.784 329.637 923.333 281.5C985.351 220.009 1145.83 259 1145.83 259C1145.83 259 1152.62 152.529 1199.83 116C1242.71 82.8212 1336.83 93.5 1336.83 93.5L1374.83 33" stroke="#00BBE6"/>
<path d="M177.857 852.785C251.457 687.585 365.524 699.285 413.357 725.785C413.357 725.785 415.134 608.842 467.357 573.286C527.621 532.254 651.857 601.786 651.857 601.786C651.857 601.786 639.67 495.611 680.357 452.286C735.696 393.358 887.357 452.286 887.357 452.286C887.357 452.286 886.308 331.922 934.857 283.786C996.875 222.295 1157.36 261.286 1157.36 261.286C1157.36 261.286 1164.15 154.815 1211.36 118.286C1254.24 85.1068 1348.36 95.7856 1348.36 95.7856L1386.36 35.2856" stroke="#00BBE6"/>
<path d="M189.381 855.071C262.981 689.871 377.048 701.571 424.881 728.071C424.881 728.071 426.658 611.128 478.881 575.571C539.145 534.54 663.381 604.071 663.381 604.071C663.381 604.071 651.194 497.896 691.881 454.571C747.22 395.644 898.881 454.571 898.881 454.571C898.881 454.571 897.831 334.208 946.381 286.071C1008.4 224.581 1168.88 263.571 1168.88 263.571C1168.88 263.571 1175.67 157.101 1222.88 120.571C1265.76 87.3925 1359.88 98.0713 1359.88 98.0713L1397.88 37.5713" stroke="#00BBE6"/>
<path d="M200.905 857.357C274.505 692.157 388.571 703.857 436.405 730.357C436.405 730.357 438.182 613.413 490.405 577.857C550.669 536.826 674.905 606.357 674.905 606.357C674.905 606.357 662.718 500.182 703.405 456.857C758.744 397.929 910.405 456.857 910.405 456.857C910.405 456.857 909.355 336.494 957.905 288.357C1019.92 226.866 1180.4 265.857 1180.4 265.857C1180.4 265.857 1187.19 159.386 1234.4 122.857C1277.29 89.6781 1371.4 100.357 1371.4 100.357L1409.4 39.8569" stroke="#00BBE6"/>
<path d="M212.428 859.643C286.028 694.443 400.095 706.143 447.928 732.643C447.928 732.643 449.705 615.699 501.928 580.143C562.193 539.112 686.428 608.643 686.428 608.643C686.428 608.643 674.242 502.468 714.928 459.143C770.268 400.216 921.928 459.143 921.928 459.143C921.928 459.143 920.879 338.78 969.428 290.643C1031.45 229.152 1191.93 268.143 1191.93 268.143C1191.93 268.143 1198.72 161.673 1245.93 125.143C1288.81 91.9643 1382.93 102.643 1382.93 102.643L1420.93 42.1431" stroke="#00BBE6"/>
<path d="M223.952 861.929C297.552 696.729 411.619 708.429 459.452 734.929C459.452 734.929 461.229 617.985 513.452 582.429C573.717 541.397 697.952 610.929 697.952 610.929C697.952 610.929 685.766 504.754 726.452 461.429C781.791 402.501 933.452 461.429 933.452 461.429C933.452 461.429 932.403 341.065 980.952 292.929C1042.97 231.438 1203.45 270.429 1203.45 270.429C1203.45 270.429 1210.24 163.958 1257.45 127.429C1300.33 94.2499 1394.45 104.929 1394.45 104.929L1432.45 44.4287" stroke="#00BBE6"/>
<path d="M235.476 864.214C309.076 699.014 423.143 710.714 470.976 737.214C470.976 737.214 472.753 620.271 524.976 584.714C585.24 543.683 709.476 613.214 709.476 613.214C709.476 613.214 697.289 507.04 737.976 463.714C793.315 404.787 944.976 463.714 944.976 463.714C944.976 463.714 943.927 343.351 992.476 295.214C1054.49 233.724 1214.98 272.714 1214.98 272.714C1214.98 272.714 1221.76 166.244 1268.98 129.714C1311.86 96.5356 1405.98 107.214 1405.98 107.214L1443.98 46.7144" stroke="#00BBE6"/>
</g>
<defs>
<filter id="filter0_di_716_445" x="0.543274" y="0.733887" width="1459.38" height="873.969" filterUnits="userSpaceOnUse" color-interpolation-filters="sRGB">
<feFlood flood-opacity="0" result="BackgroundImageFix"/>
<feColorMatrix in="SourceAlpha" type="matrix" values="0 0 0 0 0 0 0 0 0 0 0 0 0 0 0 0 0 0 127 0" result="hardAlpha"/>
<feOffset dy="4"/>
<feGaussianBlur stdDeviation="2"/>
<feComposite in2="hardAlpha" operator="out"/>
<feColorMatrix type="matrix" values="0 0 0 0 0 0 0 0 0 0 0 0 0 0 0 0 0 0 0.25 0"/>
<feBlend mode="normal" in2="BackgroundImageFix" result="effect1_dropShadow_716_445"/>
<feBlend mode="normal" in="SourceGraphic" in2="effect1_dropShadow_716_445" result="shape"/>
<feColorMatrix in="SourceAlpha" type="matrix" values="0 0 0 0 0 0 0 0 0 0 0 0 0 0 0 0 0 0 127 0" result="hardAlpha"/>
<feOffset dy="4"/>
<feGaussianBlur stdDeviation="2"/>
<feComposite in2="hardAlpha" operator="arithmetic" k2="-1" k3="1"/>
<feColorMatrix type="matrix" values="0 0 0 0 0 0 0 0 0 0 0 0 0 0 0 0 0 0 0.25 0"/>
<feBlend mode="normal" in2="shape" result="effect2_innerShadow_716_445"/>
</filter>
</defs>
</svg>
